<?xml version="1.0" encoding="utf-8"?>
<!-- Generator: Adobe Illustrator 21.1.0, SVG Export Plug-In . SVG Version: 6.00 Build 0)  -->
<svg version="1.1" id="Layer_1" xmlns="http://www.w3.org/2000/svg" xmlns:xlink="http://www.w3.org/1999/xlink" x="0px" y="0px"
	 viewBox="0 0 400 232" style="enable-background:new 0 0 400 232;" xml:space="preserve">
<style type="text/css">
	.st0{fill:url(#SVGID_1_);}
	.st1{fill:url(#SVGID_2_);}
	.st2{fill:url(#SVGID_3_);}
	.st3{fill:url(#SVGID_4_);}
	.st4{fill:url(#SVGID_5_);}
	.st5{fill:url(#SVGID_6_);}
	.st6{fill:url(#SVGID_7_);}
	.st7{fill:url(#SVGID_8_);}
	.st8{fill:url(#SVGID_9_);}
	.st9{fill:#F2F2F2;}
	.st10{fill:url(#SVGID_10_);}
	.st11{fill:url(#SVGID_11_);}
	.st12{fill:url(#SVGID_12_);}
	.st13{fill:url(#SVGID_13_);}
	.st14{fill:url(#SVGID_14_);}
	.st15{fill:url(#SVGID_15_);}
</style>
<g>
	<g>
		<linearGradient id="SVGID_1_" gradientUnits="userSpaceOnUse" x1="287.6874" y1="53.3774" x2="331.6252" y2="17.7973">
			<stop  offset="0" style="stop-color:#F9F1CD"/>
			<stop  offset="1.575238e-02" style="stop-color:#EACDAF"/>
			<stop  offset="4.234700e-02" style="stop-color:#D49881"/>
			<stop  offset="6.924071e-02" style="stop-color:#C16959"/>
			<stop  offset="9.589180e-02" style="stop-color:#B14339"/>
			<stop  offset="0.1222" style="stop-color:#A52620"/>
			<stop  offset="0.1482" style="stop-color:#9C110E"/>
			<stop  offset="0.1736" style="stop-color:#970404"/>
			<stop  offset="0.1979" style="stop-color:#950000"/>
			<stop  offset="0.3912" style="stop-color:#970000"/>
			<stop  offset="0.4231" style="stop-color:#990000"/>
			<stop  offset="0.7306" style="stop-color:#CC0303"/>
			<stop  offset="0.9866" style="stop-color:#F30505"/>
		</linearGradient>
		<circle class="st0" cx="309.7" cy="35.6" r="28.3"/>
		<linearGradient id="SVGID_2_" gradientUnits="userSpaceOnUse" x1="285.619" y1="80.2663" x2="329.5568" y2="44.6861">
			<stop  offset="0" style="stop-color:#F9F1CD"/>
			<stop  offset="1.639397e-02" style="stop-color:#CDCAC5"/>
			<stop  offset="3.914076e-02" style="stop-color:#9899BB"/>
			<stop  offset="6.215411e-02" style="stop-color:#696FB3"/>
			<stop  offset="8.495234e-02" style="stop-color:#434DAC"/>
			<stop  offset="0.1075" style="stop-color:#2632A7"/>
			<stop  offset="0.1297" style="stop-color:#111FA3"/>
			<stop  offset="0.1515" style="stop-color:#0414A1"/>
			<stop  offset="0.1722" style="stop-color:#0010A0"/>
			<stop  offset="0.2296" style="stop-color:#0B0DB3"/>
			<stop  offset="0.431" style="stop-color:#3202F4"/>
			<stop  offset="0.5821" style="stop-color:#3207F0"/>
			<stop  offset="0.7535" style="stop-color:#3214E5"/>
			<stop  offset="0.9344" style="stop-color:#332BD3"/>
			<stop  offset="0.9866" style="stop-color:#3333CC"/>
		</linearGradient>
		<circle class="st1" cx="307.6" cy="62.5" r="28.3"/>
		<linearGradient id="SVGID_3_" gradientUnits="userSpaceOnUse" x1="292.6287" y1="118.5202" x2="312.8947" y2="65.7255">
			<stop  offset="0" style="stop-color:#F9F1CD"/>
			<stop  offset="1.399696e-02" style="stop-color:#D8D1B4"/>
			<stop  offset="3.495351e-02" style="stop-color:#ADA794"/>
			<stop  offset="5.822016e-02" style="stop-color:#858176"/>
			<stop  offset="8.328471e-02" style="stop-color:#64615D"/>
			<stop  offset="0.1107" style="stop-color:#474548"/>
			<stop  offset="0.1413" style="stop-color:#302F36"/>
			<stop  offset="0.1763" style="stop-color:#1F1E29"/>
			<stop  offset="0.2187" style="stop-color:#121220"/>
			<stop  offset="0.2758" style="stop-color:#0B0B1B"/>
			<stop  offset="0.4113" style="stop-color:#090919"/>
			<stop  offset="0.4812" style="stop-color:#090919"/>
			<stop  offset="0.9058" style="stop-color:#090919"/>
			<stop  offset="0.9172" style="stop-color:#090919"/>
			<stop  offset="0.9866" style="stop-color:#090919"/>
		</linearGradient>
		<circle class="st2" cx="302.8" cy="92.1" r="28.3"/>
		<linearGradient id="SVGID_4_" gradientUnits="userSpaceOnUse" x1="315.9551" y1="51.9985" x2="359.8929" y2="16.4184">
			<stop  offset="0" style="stop-color:#F9F1CD"/>
			<stop  offset="1.399696e-02" style="stop-color:#D8D1B4"/>
			<stop  offset="3.495351e-02" style="stop-color:#ADA794"/>
			<stop  offset="5.822016e-02" style="stop-color:#858176"/>
			<stop  offset="8.328471e-02" style="stop-color:#64615D"/>
			<stop  offset="0.1107" style="stop-color:#474548"/>
			<stop  offset="0.1413" style="stop-color:#302F36"/>
			<stop  offset="0.1763" style="stop-color:#1F1E29"/>
			<stop  offset="0.2187" style="stop-color:#121220"/>
			<stop  offset="0.2758" style="stop-color:#0B0B1B"/>
			<stop  offset="0.4113" style="stop-color:#090919"/>
			<stop  offset="0.4812" style="stop-color:#090919"/>
			<stop  offset="0.9058" style="stop-color:#090919"/>
			<stop  offset="0.9172" style="stop-color:#090919"/>
			<stop  offset="0.9866" style="stop-color:#090919"/>
		</linearGradient>
		<circle class="st3" cx="337.9" cy="34.2" r="28.3"/>
		<linearGradient id="SVGID_5_" gradientUnits="userSpaceOnUse" x1="315.9551" y1="80.2663" x2="359.8929" y2="44.6861">
			<stop  offset="0" style="stop-color:#F9F1CD"/>
			<stop  offset="1.575238e-02" style="stop-color:#EACDAF"/>
			<stop  offset="4.234700e-02" style="stop-color:#D49881"/>
			<stop  offset="6.924071e-02" style="stop-color:#C16959"/>
			<stop  offset="9.589180e-02" style="stop-color:#B14339"/>
			<stop  offset="0.1222" style="stop-color:#A52620"/>
			<stop  offset="0.1482" style="stop-color:#9C110E"/>
			<stop  offset="0.1736" style="stop-color:#970404"/>
			<stop  offset="0.1979" style="stop-color:#950000"/>
			<stop  offset="0.3912" style="stop-color:#970000"/>
			<stop  offset="0.4231" style="stop-color:#990000"/>
			<stop  offset="0.7306" style="stop-color:#CC0303"/>
			<stop  offset="0.9866" style="stop-color:#F30505"/>
		</linearGradient>
		<circle class="st4" cx="337.9" cy="62.5" r="28.3"/>
		<linearGradient id="SVGID_6_" gradientUnits="userSpaceOnUse" x1="327.791" y1="119.8992" x2="348.057" y2="67.1045">
			<stop  offset="0" style="stop-color:#F9F1CD"/>
			<stop  offset="1.639397e-02" style="stop-color:#CDCAC5"/>
			<stop  offset="3.914076e-02" style="stop-color:#9899BB"/>
			<stop  offset="6.215411e-02" style="stop-color:#696FB3"/>
			<stop  offset="8.495234e-02" style="stop-color:#434DAC"/>
			<stop  offset="0.1075" style="stop-color:#2632A7"/>
			<stop  offset="0.1297" style="stop-color:#111FA3"/>
			<stop  offset="0.1515" style="stop-color:#0414A1"/>
			<stop  offset="0.1722" style="stop-color:#0010A0"/>
			<stop  offset="0.2296" style="stop-color:#0B0DB3"/>
			<stop  offset="0.431" style="stop-color:#3202F4"/>
			<stop  offset="0.5821" style="stop-color:#3207F0"/>
			<stop  offset="0.7535" style="stop-color:#3214E5"/>
			<stop  offset="0.9344" style="stop-color:#332BD3"/>
			<stop  offset="0.9866" style="stop-color:#3333CC"/>
		</linearGradient>
		<circle class="st5" cx="337.9" cy="93.5" r="28.3"/>
		<linearGradient id="SVGID_7_" gradientUnits="userSpaceOnUse" x1="349.7386" y1="46.4829" x2="393.6764" y2="10.9027">
			<stop  offset="0" style="stop-color:#F9F1CD"/>
			<stop  offset="1.639397e-02" style="stop-color:#CDCAC5"/>
			<stop  offset="3.914076e-02" style="stop-color:#9899BB"/>
			<stop  offset="6.215411e-02" style="stop-color:#696FB3"/>
			<stop  offset="8.495234e-02" style="stop-color:#434DAC"/>
			<stop  offset="0.1075" style="stop-color:#2632A7"/>
			<stop  offset="0.1297" style="stop-color:#111FA3"/>
			<stop  offset="0.1515" style="stop-color:#0414A1"/>
			<stop  offset="0.1722" style="stop-color:#0010A0"/>
			<stop  offset="0.2296" style="stop-color:#0B0DB3"/>
			<stop  offset="0.431" style="stop-color:#3202F4"/>
			<stop  offset="0.5821" style="stop-color:#3207F0"/>
			<stop  offset="0.7535" style="stop-color:#3214E5"/>
			<stop  offset="0.9344" style="stop-color:#332BD3"/>
			<stop  offset="0.9866" style="stop-color:#3333CC"/>
		</linearGradient>
		<circle class="st6" cx="371.7" cy="28.7" r="28.3"/>
		<linearGradient id="SVGID_8_" gradientUnits="userSpaceOnUse" x1="345.6018" y1="80.2663" x2="389.5396" y2="44.6861">
			<stop  offset="0" style="stop-color:#F9F1CD"/>
			<stop  offset="1.399696e-02" style="stop-color:#D8D1B4"/>
			<stop  offset="3.495351e-02" style="stop-color:#ADA794"/>
			<stop  offset="5.822016e-02" style="stop-color:#858176"/>
			<stop  offset="8.328471e-02" style="stop-color:#64615D"/>
			<stop  offset="0.1107" style="stop-color:#474548"/>
			<stop  offset="0.1413" style="stop-color:#302F36"/>
			<stop  offset="0.1763" style="stop-color:#1F1E29"/>
			<stop  offset="0.2187" style="stop-color:#121220"/>
			<stop  offset="0.2758" style="stop-color:#0B0B1B"/>
			<stop  offset="0.4113" style="stop-color:#090919"/>
			<stop  offset="0.4812" style="stop-color:#090919"/>
			<stop  offset="0.9058" style="stop-color:#090919"/>
			<stop  offset="0.9172" style="stop-color:#090919"/>
			<stop  offset="0.9866" style="stop-color:#090919"/>
		</linearGradient>
		<circle class="st7" cx="367.6" cy="62.5" r="28.3"/>
		<linearGradient id="SVGID_9_" gradientUnits="userSpaceOnUse" x1="354.6799" y1="124.7254" x2="374.9459" y2="71.9307">
			<stop  offset="0" style="stop-color:#F9F1CD"/>
			<stop  offset="1.575238e-02" style="stop-color:#EACDAF"/>
			<stop  offset="4.234700e-02" style="stop-color:#D49881"/>
			<stop  offset="6.924071e-02" style="stop-color:#C16959"/>
			<stop  offset="9.589180e-02" style="stop-color:#B14339"/>
			<stop  offset="0.1222" style="stop-color:#A52620"/>
			<stop  offset="0.1482" style="stop-color:#9C110E"/>
			<stop  offset="0.1736" style="stop-color:#970404"/>
			<stop  offset="0.1979" style="stop-color:#950000"/>
			<stop  offset="0.3912" style="stop-color:#970000"/>
			<stop  offset="0.4231" style="stop-color:#990000"/>
			<stop  offset="0.7306" style="stop-color:#CC0303"/>
			<stop  offset="0.9866" style="stop-color:#F30505"/>
		</linearGradient>
		<circle class="st8" cx="364.8" cy="98.3" r="28.3"/>
	</g>
	<g>
		<path class="st9" d="M43.9,203.1H25.5c-2.3,0-4.2,1.9-4.2,4.2v3.8c0,2.3,1.9,4.2,4.2,4.2h7.4c0.2,0,0.3,0.1,0.4,0.2
			c0.1,0.2,0,0.3-0.1,0.4c-1.2,1.3-3.6,2.8-7.6,2.8c-5.6,0-11.7-3.2-11.7-12.1c0-9.4,7.2-11.9,11.4-11.9c5.8,0,8.1,3.4,8.8,4.9
			c0.9,1.9,3.1,2.7,5.1,2.1l5.3-1.8c1.1-0.4,2-1.2,2.5-2.3c0.5-1.1,0.4-2.3-0.1-3.4c-1.7-3.7-7.4-12.3-21.6-12.3
			C10.9,181.7,0,192.4,0,206.6c0,14.4,10.4,24.9,24.8,24.9c5.2,0,8.8-1.6,10.8-2.9c0.2-0.1,0.4-0.1,0.4-0.1c0.1,0.1,0.2,0.2,0.2,0.3
			l0.3,1.7h7.5c2.3,0,4.2-1.9,4.2-4.2v-19.1C48.1,204.9,46.2,203.1,43.9,203.1z"/>
		<path class="st9" d="M87,187.3c-0.8-2.2-3-3.7-5.4-3.7h-6.4c-2.4,0-4.5,1.5-5.4,3.7L55,225.8c-0.5,1.3-0.3,2.7,0.5,3.9
			c0.8,1.1,2.1,1.8,3.4,1.8h5.6c1.7,0,3.3-1.1,3.9-2.7l2.2-6c0.1-0.1,0.2-0.2,0.3-0.2h14.2c0.2,0,0.3,0.1,0.3,0.2l2.2,6
			c0.6,1.6,2.2,2.7,3.9,2.7h6c1.4,0,2.7-0.7,3.4-1.8c0.8-1.1,1-2.6,0.5-3.9L87,187.3z"/>
		<path class="st9" d="M159.2,183.6h-7.5c-2.4,0-4.4,1.4-5.3,3.6l-8.3,21c-0.2,0.5-0.7,0.6-0.9,0.6c-0.2,0-0.6-0.1-0.8-0.6
			l-8.8-21.1c-0.9-2.1-3-3.5-5.3-3.5h-6.8c-3.1,0-5.7,2.6-5.7,5.7v36.5c0,3.1,2.6,5.7,5.7,5.7h1.9c3.1,0,5.7-2.6,5.7-5.7v-10.7
			c0-0.7,0.5-0.8,0.7-0.9c0.3-0.1,0.8-0.1,1,0.6l5.6,13.8c0.7,1.8,2.5,2.9,4.4,2.9h4.3c1.9,0,3.7-1.2,4.4-3l5.5-13.8
			c0.2-0.6,0.8-0.6,1-0.6c0.3,0.1,0.8,0.2,0.8,0.9v10.7c0,3.1,2.6,5.7,5.7,5.7h2.5c3.1,0,5.7-2.6,5.7-5.7v-36.5
			C164.8,186.2,162.3,183.6,159.2,183.6z"/>
		<path class="st9" d="M201,183.6h-20.2c-3.4,0-6.1,2.7-6.1,6.1v41.8H201c3.4,0,6.1-2.7,6.1-6.1v-0.9c0-3.4-2.7-6.1-6.1-6.1h-10.1
			c-1.3,0-2.3-1.1-2.3-2.3c0-1.3,1.1-2.3,2.3-2.3h8.3c3.4,0,6.1-2.7,6.1-6.1v-0.3c0-3.4-2.7-6.1-6.1-6.1h-8.4c-1.3,0-2.3-1-2.3-2.3
			s1-2.3,2.3-2.3H201c3.4,0,6.1-2.7,6.1-6.1v-0.9C207.1,186.4,204.4,183.6,201,183.6z"/>
		<path class="st9" d="M236.7,200.6l-6.1-1.1c-2.9-0.5-2.9-1.8-2.9-2.3c0-1.4,1.6-2.8,4.3-2.8c2.4,0,4.1,0.6,5,1.8
			c1.5,1.9,3.8,2.9,6,2.4l1-0.2c2-0.4,3.7-1.8,4.5-3.7c0.8-1.9,0.5-4-0.6-5.7c-2.3-3.3-6.8-7.2-15.8-7.2c-10.1,0-18,7.1-18,16.1
			c0,7.6,5.3,13.3,13.9,14.8l6,1.1c1.2,0.3,3.3,1,3.3,2.6c0,2-2.4,2.7-4.4,2.7c-5.6,0-6.6-1.8-7-2.5c-1.2-2.3-3.5-3.6-5.9-3.4
			l-0.5,0c-2.1,0.2-4,1.4-5,3.3c-1,1.9-0.9,4.2,0.2,6.1c2,3.3,7.1,8.9,18,8.9c12,0,18.5-8.2,18.5-15.9
			C251.3,207.9,245.7,202.1,236.7,200.6z"/>
	</g>
	<g>
		<linearGradient id="SVGID_10_" gradientUnits="userSpaceOnUse" x1="47.586" y1="124.2995" x2="4.5017" y2="149.1743">
			<stop  offset="0" style="stop-color:#F9F1CD"/>
			<stop  offset="3.465545e-02" style="stop-color:#A2A2BD"/>
			<stop  offset="0.2474" style="stop-color:#8476CC"/>
			<stop  offset="0.7264" style="stop-color:#3709F1"/>
			<stop  offset="0.7574" style="stop-color:#3202F4"/>
			<stop  offset="0.8224" style="stop-color:#320BED"/>
			<stop  offset="0.9272" style="stop-color:#3323D9"/>
			<stop  offset="0.9866" style="stop-color:#3333CC"/>
		</linearGradient>
		<path class="st10" d="M43.9,130.5H25.5c-2.3,0-4.2,1.9-4.2,4.2v3.8c0,2.3,1.9,4.2,4.2,4.2h7.4c0.2,0,0.3,0.1,0.4,0.2
			c0.1,0.2,0,0.3-0.1,0.4c-1.2,1.3-3.6,2.8-7.6,2.8c-5.6,0-11.7-3.2-11.7-12.1c0-9.4,7.2-11.9,11.4-11.9c5.2,0,7.6,2.7,8.5,4.3
			c1.3,2.1,3.9,3.1,6.3,2.3l3.8-1.9c1.1-0.6,1.9-1.6,2.2-2.8c0.3-1.2,0-2.5-0.7-3.4c-2.5-3.4-9.5-11.5-20.1-11.5
			C10.9,109.2,0,119.9,0,134.1C0,148.5,10.4,159,24.7,159c5.2,0,8.8-1.6,10.8-2.9c0.2-0.1,0.4-0.1,0.4-0.1c0.1,0.1,0.2,0.2,0.2,0.3
			l0.3,1.7h7.5c2.3,0,4.2-1.9,4.2-4.2v-19.1C48.1,132.4,46.2,130.5,43.9,130.5z"/>
		<linearGradient id="SVGID_11_" gradientUnits="userSpaceOnUse" x1="126.653" y1="126.9421" x2="98.6718" y2="143.097">
			<stop  offset="0" style="stop-color:#F9F1CD"/>
			<stop  offset="3.465545e-02" style="stop-color:#A2A2BD"/>
			<stop  offset="0.2474" style="stop-color:#8476CC"/>
			<stop  offset="0.7264" style="stop-color:#3709F1"/>
			<stop  offset="0.7574" style="stop-color:#3202F4"/>
			<stop  offset="0.8224" style="stop-color:#320BED"/>
			<stop  offset="0.9272" style="stop-color:#3323D9"/>
			<stop  offset="0.9866" style="stop-color:#3333CC"/>
		</linearGradient>
		<path class="st11" d="M114.6,111.1h-3.8c-2.8,0-5.1,2.3-5.1,5.1v37.7c0,2.8,2.3,5.1,5.1,5.1h3.8c2.8,0,5.1-2.3,5.1-5.1v-37.7
			C119.6,113.4,117.4,111.1,114.6,111.1z"/>
		<linearGradient id="SVGID_12_" gradientUnits="userSpaceOnUse" x1="205.1211" y1="126.942" x2="177.1397" y2="143.0971">
			<stop  offset="0" style="stop-color:#F9F1CD"/>
			<stop  offset="3.465545e-02" style="stop-color:#A2A2BD"/>
			<stop  offset="0.2474" style="stop-color:#8476CC"/>
			<stop  offset="0.7264" style="stop-color:#3709F1"/>
			<stop  offset="0.7574" style="stop-color:#3202F4"/>
			<stop  offset="0.8224" style="stop-color:#320BED"/>
			<stop  offset="0.9272" style="stop-color:#3323D9"/>
			<stop  offset="0.9866" style="stop-color:#3333CC"/>
		</linearGradient>
		<path class="st12" d="M193,111.1h-3.8c-2.8,0-5.1,2.3-5.1,5.1v37.7c0,2.8,2.3,5.1,5.1,5.1h3.8c2.8,0,5.1-2.3,5.1-5.1v-37.7
			C198.1,113.4,195.8,111.1,193,111.1z"/>
		<linearGradient id="SVGID_13_" gradientUnits="userSpaceOnUse" x1="170.2845" y1="121.2742" x2="126.1474" y2="146.7567">
			<stop  offset="0" style="stop-color:#F9F1CD"/>
			<stop  offset="3.465545e-02" style="stop-color:#A2A2BD"/>
			<stop  offset="0.2474" style="stop-color:#8476CC"/>
			<stop  offset="0.7264" style="stop-color:#3709F1"/>
			<stop  offset="0.7574" style="stop-color:#3202F4"/>
			<stop  offset="0.8224" style="stop-color:#320BED"/>
			<stop  offset="0.9272" style="stop-color:#3323D9"/>
			<stop  offset="0.9866" style="stop-color:#3333CC"/>
		</linearGradient>
		<path class="st13" d="M168.7,119.6c-4.8-5.4-11.8-8.5-19-8.5h-14.1c-1.9,0-3.4,1.5-3.4,3.4v42c0,1.3,1.1,2.4,2.4,2.4h15.8
			c13.6,0,23-7.8,24.4-20.4C175.6,131.7,173.4,124.9,168.7,119.6z"/>
		
			<linearGradient id="SVGID_14_" gradientUnits="userSpaceOnUse" x1="1605.8213" y1="1633.2247" x2="1648.1405" y2="1608.7917" gradientTransform="matrix(-1 0 0 -1 1861.8564 1755.7832)">
			<stop  offset="0" style="stop-color:#F9F1CD"/>
			<stop  offset="0.1971" style="stop-color:#9C9C9C"/>
			<stop  offset="0.35" style="stop-color:#BEBEBE"/>
			<stop  offset="0.5144" style="stop-color:#DADADA"/>
			<stop  offset="0.6787" style="stop-color:#EFEFEF"/>
			<stop  offset="0.8412" style="stop-color:#FBFBFB"/>
			<stop  offset="1" style="stop-color:#FFFFFF"/>
		</linearGradient>
		<path class="st14" d="M234.8,159c-13.1,0-24.1-9.5-24.1-24.2s11.1-24.2,24.1-24.2c13.1,0,24.2,9.5,24.2,24.2S247.9,159,234.8,159z
			"/>
		<linearGradient id="SVGID_15_" gradientUnits="userSpaceOnUse" x1="96.4098" y1="123.6538" x2="54.6008" y2="147.7922">
			<stop  offset="0" style="stop-color:#F9F1CD"/>
			<stop  offset="3.465545e-02" style="stop-color:#A2A2BD"/>
			<stop  offset="0.2474" style="stop-color:#8476CC"/>
			<stop  offset="0.7264" style="stop-color:#3709F1"/>
			<stop  offset="0.7574" style="stop-color:#3202F4"/>
			<stop  offset="0.8224" style="stop-color:#320BED"/>
			<stop  offset="0.9272" style="stop-color:#3323D9"/>
			<stop  offset="0.9866" style="stop-color:#3333CC"/>
		</linearGradient>
		<path class="st15" d="M87.5,140.4c-0.1-0.1,0-0.3,0.1-0.4c5.1-2.6,8-7.5,8-13.3c0-9.3-6.8-15.7-16.5-15.7H63.3
			c-2.3,0-4.1,1.8-4.1,4.1v39.7c0,2.3,1.8,4.1,4.1,4.1H69c2.3,0,4.1-1.8,4.1-4.1v-12c0-0.3,0.4-0.4,0.5-0.1l6.9,14.1
			c0.7,1.4,2.1,2.3,3.7,2.3h6.1c1.4,0,2.7-0.7,3.5-2c0.8-1.2,0.8-2.7,0.2-4L87.5,140.4z"/>
	</g>
</g>
</svg>
